<svg xmlns="http://www.w3.org/2000/svg" viewBox="0 0 500 500">
  <rect width="500" height="500" rx="100" fill="#111"/>
  <g transform="translate(40,20)">
    <path d="M 120 140 L 180 140 L 220 280 L 220 140 L 260 140 L 210 320 L 150 320 L 110 180 L 110 320 L 70 320 Z" fill="#FFFFFF"/>
    <polygon points="70,140 120,140 110,180" fill="#FFFFFF"/>
    <path d="M 230 140 L 270 140 L 270 210 L 320 210 L 320 140 L 370 140 L 370 320 L 330 320 L 330 250 L 270 250 L 270 320 L 230 320 Z" fill="#FF7A1A"/>
    <polygon points="230,140 270,140 250,170" fill="rgba(255,255,255,0.25)"/>
    <polygon points="320,140 370,140 340,170" fill="rgba(255,255,255,0.25)"/>
  </g>
</svg>
